{
  "asset": {
    "generator": "Khronos glTF Blender I/O v3.3.27",
    "version": "2.0"
  },
  "scene": 0,
  "scenes": [
    {
      "name": "Scene",
      "nodes": [
        0,
        1,
        2,
        3,
        4,
        5,
        6,
        7,
        8
      ]
    }
  ],
  "nodes": [
    {
      "mesh": 0,
      "name": "Cube.020",
      "scale": [
        1.9702255725860596,
        0.06826090812683105,
        1
      ],
      "translation": [
        0,
        -0.10561219602823257,
        -63.13471984863281
      ]
    },
    {
      "mesh": 1,
      "name": "Cube.051",
      "rotation": [
        0,
        1,
        0,
        0
      ],
      "scale": [
        -1.5329796075820923,
        -0.07857448607683182,
        -0.23283497989177704
      ],
      "translation": [
        0,
        0.7942472100257874,
        -63.08530044555664
      ]
    },
    {
      "mesh": 2,
      "name": "Cube.053",
      "rotation": [
        0,
        1,
        0,
        0
      ],
      "scale": [
        -1.410666584968567,
        -0.051590368151664734,
        -0.375570684671402
      ],
      "translation": [
        0,
        -0.07655400037765503,
        -63.08530044555664
      ]
    },
    {
      "mesh": 3,
      "name": "Cylinder",
      "scale": [
        0.12690508365631104,
        0.12690508365631104,
        0.12690508365631104
      ],
      "translation": [
        -1.8176604509353638,
        0.060505859553813934,
        -63.93389892578125
      ]
    },
    {
      "mesh": 4,
      "name": "Cylinder.001",
      "rotation": [
        -0.904221773147583,
        -0.30826106667518616,
        0.01463405229151249,
        0.2952015995979309
      ],
      "scale": [
        -0.12690508365631104,
        -0.12690508365631104,
        -0.12690509855747223
      ],
      "translation": [
        1.8623931407928467,
        0.060505859553813934,
        -63.93389892578125
      ]
    },
    {
      "mesh": 5,
      "name": "Cylinder.002",
      "scale": [
        0.12690508365631104,
        0.12690508365631104,
        0.12690508365631104
      ]
    },
    {
      "mesh": 6,
      "name": "Cylinder.003",
      "rotation": [
        -0.904221773147583,
        -0.30826106667518616,
        0.01463405229151249,
        0.2952015995979309
      ],
      "scale": [
        -0.12690508365631104,
        -0.12690508365631104,
        -0.12690509855747223
      ],
      "translation": [
        0.04473179578781128,
        0,
        0
      ]
    },
    {
      "mesh": 7,
      "name": "Text",
      "scale": [
        1.5486977100372314,
        1.5486977100372314,
        1.5486977100372314
      ],
      "translation": [
        -0.21361100673675537,
        1.4128410816192627,
        -63.08530044555664
      ]
    },
    {
      "mesh": 8,
      "name": "Text.001",
      "translation": [
        0,
        0.3497660756111145,
        -63.08530044555664
      ]
    }
  ],
  "materials": [
    {
      "doubleSided": true,
      "name": "stone",
      "pbrMetallicRoughness": {
        "baseColorFactor": [
          0.08001147210597992,
          0.08001147210597992,
          0.08001147210597992,
          1
        ],
        "metallicFactor": 0,
        "roughnessFactor": 0.5
      },
      "emissiveFactor": [
        0,
        0,
        0
      ],
      "alphaMode": "OPAQUE",
      "alphaCutoff": 0.5
    },
    {
      "doubleSided": true,
      "name": "Material.003",
      "pbrMetallicRoughness": {
        "baseColorFactor": [
          0.7991032600402832,
          0.31398868560791016,
          0,
          1
        ],
        "metallicFactor": 0,
        "roughnessFactor": 0.5
      },
      "emissiveFactor": [
        0,
        0,
        0
      ],
      "alphaMode": "OPAQUE",
      "alphaCutoff": 0.5
    },
    {
      "doubleSided": true,
      "name": "matal",
      "pbrMetallicRoughness": {
        "baseColorFactor": [
          0.05780224874615669,
          0.05780224874615669,
          0.05780224874615669,
          1
        ],
        "metallicFactor": 0,
        "roughnessFactor": 0.5
      },
      "emissiveFactor": [
        0,
        0,
        0
      ],
      "alphaMode": "OPAQUE",
      "alphaCutoff": 0.5
    }
  ],
  "meshes": [
    {
      "name": "Cube.057",
      "primitives": [
        {
          "attributes": {
            "POSITION": 0,
            "NORMAL": 1,
            "TEXCOORD_0": 2
          },
          "indices": 3,
          "material": 0
        }
      ]
    },
    {
      "name": "Cube.003",
      "primitives": [
        {
          "attributes": {
            "POSITION": 4,
            "NORMAL": 5,
            "TEXCOORD_0": 6
          },
          "indices": 7,
          "material": 1
        }
      ]
    },
    {
      "name": "Cube.002",
      "primitives": [
        {
          "attributes": {
            "POSITION": 8,
            "NORMAL": 9,
            "TEXCOORD_0": 10
          },
          "indices": 11,
          "material": 1
        }
      ]
    },
    {
      "name": "Cylinder",
      "primitives": [
        {
          "attributes": {
            "POSITION": 12,
            "NORMAL": 13,
            "TEXCOORD_0": 14
          },
          "indices": 15,
          "material": 2
        }
      ]
    },
    {
      "name": "Cylinder.001",
      "primitives": [
        {
          "attributes": {
            "POSITION": 16,
            "NORMAL": 17,
            "TEXCOORD_0": 18
          },
          "indices": 15,
          "material": 2
        }
      ]
    },
    {
      "name": "Cylinder.002",
      "primitives": [
        {
          "attributes": {
            "POSITION": 19,
            "NORMAL": 20,
            "TEXCOORD_0": 21
          },
          "indices": 15,
          "material": 2
        }
      ]
    },
    {
      "name": "Cylinder.003",
      "primitives": [
        {
          "attributes": {
            "POSITION": 22,
            "NORMAL": 23,
            "TEXCOORD_0": 24
          },
          "indices": 15,
          "material": 2
        }
      ]
    },
    {
      "name": "Text.003",
      "primitives": [
        {
          "attributes": {
            "POSITION": 25,
            "NORMAL": 26,
            "TEXCOORD_0": 27
          },
          "indices": 28,
          "material": 1
        }
      ]
    },
    {
      "name": "Text.002",
      "primitives": [
        {
          "attributes": {
            "POSITION": 29,
            "NORMAL": 30,
            "TEXCOORD_0": 31
          },
          "indices": 32,
          "material": 1
        }
      ]
    }
  ],
  "accessors": [
    {
      "bufferView": 0,
      "componentType": 5126,
      "count": 88,
      "max": [
        1.0907094478607178,
        1,
        1.0907096862792969
      ],
      "min": [
        -1.0907094478607178,
        -16.029394149780273,
        -1.0907096862792969
      ],
      "type": "VEC3"
    },
    {
      "bufferView": 1,
      "componentType": 5126,
      "count": 88,
      "type": "VEC3"
    },
    {
      "bufferView": 2,
      "componentType": 5126,
      "count": 88,
      "type": "VEC2"
    },
    {
      "bufferView": 3,
      "componentType": 5123,
      "count": 132,
      "type": "SCALAR"
    },
    {
      "bufferView": 4,
      "componentType": 5126,
      "count": 24,
      "max": [
        0.9999999403953552,
        0.9999998807907104,
        0.9999998211860657
      ],
      "min": [
        -0.9999999403953552,
        -0.9999998807907104,
        -0.9999998211860657
      ],
      "type": "VEC3"
    },
    {
      "bufferView": 5,
      "componentType": 5126,
      "count": 24,
      "type": "VEC3"
    },
    {
      "bufferView": 6,
      "componentType": 5126,
      "count": 24,
      "type": "VEC2"
    },
    {
      "bufferView": 7,
      "componentType": 5123,
      "count": 36,
      "type": "SCALAR"
    },
    {
      "bufferView": 8,
      "componentType": 5126,
      "count": 14,
      "max": [
        1,
        1,
        1.0000001192092896
      ],
      "min": [
        -1,
        -1,
        -1.0000001192092896
      ],
      "type": "VEC3"
    },
    {
      "bufferView": 9,
      "componentType": 5126,
      "count": 14,
      "type": "VEC3"
    },
    {
      "bufferView": 10,
      "componentType": 5126,
      "count": 14,
      "type": "VEC2"
    },
    {
      "bufferView": 11,
      "componentType": 5123,
      "count": 36,
      "type": "SCALAR"
    },
    {
      "bufferView": 12,
      "componentType": 5126,
      "count": 163,
      "max": [
        1.6881370544433594,
        1.7599434852600098,
        1.6840399503707886
      ],
      "min": [
        -1.0787984132766724,
        -1.0934275388717651,
        -1.0812352895736694
      ],
      "type": "VEC3"
    },
    {
      "bufferView": 13,
      "componentType": 5126,
      "count": 163,
      "type": "VEC3"
    },
    {
      "bufferView": 14,
      "componentType": 5126,
      "count": 163,
      "type": "VEC2"
    },
    {
      "bufferView": 15,
      "componentType": 5123,
      "count": 564,
      "type": "SCALAR"
    },
    {
      "bufferView": 16,
      "componentType": 5126,
      "count": 163,
      "max": [
        0.9999923706054688,
        1.555145263671875,
        1.000030517578125
      ],
      "min": [
        -1.0000076293945312,
        -1.11041259765625,
        -0.999969482421875
      ],
      "type": "VEC3"
    },
    {
      "bufferView": 17,
      "componentType": 5126,
      "count": 163,
      "type": "VEC3"
    },
    {
      "bufferView": 18,
      "componentType": 5126,
      "count": 163,
      "type": "VEC2"
    },
    {
      "bufferView": 19,
      "componentType": 5126,
      "count": 163,
      "max": [
        -12.634857177734375,
        2.236724853515625,
        -502.1090393066406
      ],
      "min": [
        -15.401809692382812,
        -0.6166534423828125,
        -504.87432861328125
      ],
      "type": "VEC3"
    },
    {
      "bufferView": 20,
      "componentType": 5126,
      "count": 163,
      "type": "VEC3"
    },
    {
      "bufferView": 21,
      "componentType": 5126,
      "count": 163,
      "type": "VEC2"
    },
    {
      "bufferView": 22,
      "componentType": 5126,
      "count": 163,
      "max": [
        67.49198150634766,
        -279.5007019042969,
        -412.0365905761719
      ],
      "min": [
        65.49198150634766,
        -282.166259765625,
        -414.0365905761719
      ],
      "type": "VEC3"
    },
    {
      "bufferView": 23,
      "componentType": 5126,
      "count": 163,
      "type": "VEC3"
    },
    {
      "bufferView": 24,
      "componentType": 5126,
      "count": 163,
      "type": "VEC2"
    },
    {
      "bufferView": 25,
      "componentType": 5126,
      "count": 2908,
      "max": [
        1.0343148708343506,
        0.34999987483024597,
        2.4106245177790697e-7
      ],
      "min": [
        -0.7336851954460144,
        -0.35000017285346985,
        -0.13037125766277313
      ],
      "type": "VEC3"
    },
    {
      "bufferView": 26,
      "componentType": 5126,
      "count": 2908,
      "type": "VEC3"
    },
    {
      "bufferView": 27,
      "componentType": 5126,
      "count": 2908,
      "type": "VEC2"
    },
    {
      "bufferView": 28,
      "componentType": 5123,
      "count": 3492,
      "type": "SCALAR"
    },
    {
      "bufferView": 29,
      "componentType": 5126,
      "count": 2444,
      "max": [
        1.486405372619629,
        0.3467695713043213,
        0.1470358520746231
      ],
      "min": [
        -1.3145949840545654,
        -0.35323047637939453,
        -0.14703594148159027
      ],
      "type": "VEC3"
    },
    {
      "bufferView": 30,
      "componentType": 5126,
      "count": 2444,
      "type": "VEC3"
    },
    {
      "bufferView": 31,
      "componentType": 5126,
      "count": 2444,
      "type": "VEC2"
    },
    {
      "bufferView": 32,
      "componentType": 5123,
      "count": 2940,
      "type": "SCALAR"
    }
  ],
  "bufferViews": [
    {
      "buffer": 0,
      "byteLength": 1056,
      "byteOffset": 0,
      "target": 34962
    },
    {
      "buffer": 0,
      "byteLength": 1056,
      "byteOffset": 1056,
      "target": 34962
    },
    {
      "buffer": 0,
      "byteLength": 704,
      "byteOffset": 2112,
      "target": 34962
    },
    {
      "buffer": 0,
      "byteLength": 264,
      "byteOffset": 2816,
      "target": 34963
    },
    {
      "buffer": 0,
      "byteLength": 288,
      "byteOffset": 3080,
      "target": 34962
    },
    {
      "buffer": 0,
      "byteLength": 288,
      "byteOffset": 3368,
      "target": 34962
    },
    {
      "buffer": 0,
      "byteLength": 192,
      "byteOffset": 3656,
      "target": 34962
    },
    {
      "buffer": 0,
      "byteLength": 72,
      "byteOffset": 3848,
      "target": 34963
    },
    {
      "buffer": 0,
      "byteLength": 168,
      "byteOffset": 3920,
      "target": 34962
    },
    {
      "buffer": 0,
      "byteLength": 168,
      "byteOffset": 4088,
      "target": 34962
    },
    {
      "buffer": 0,
      "byteLength": 112,
      "byteOffset": 4256,
      "target": 34962
    },
    {
      "buffer": 0,
      "byteLength": 72,
      "byteOffset": 4368,
      "target": 34963
    },
    {
      "buffer": 0,
      "byteLength": 1956,
      "byteOffset": 4440,
      "target": 34962
    },
    {
      "buffer": 0,
      "byteLength": 1956,
      "byteOffset": 6396,
      "target": 34962
    },
    {
      "buffer": 0,
      "byteLength": 1304,
      "byteOffset": 8352,
      "target": 34962
    },
    {
      "buffer": 0,
      "byteLength": 1128,
      "byteOffset": 9656,
      "target": 34963
    },
    {
      "buffer": 0,
      "byteLength": 1956,
      "byteOffset": 10784,
      "target": 34962
    },
    {
      "buffer": 0,
      "byteLength": 1956,
      "byteOffset": 12740,
      "target": 34962
    },
    {
      "buffer": 0,
      "byteLength": 1304,
      "byteOffset": 14696,
      "target": 34962
    },
    {
      "buffer": 0,
      "byteLength": 1956,
      "byteOffset": 16000,
      "target": 34962
    },
    {
      "buffer": 0,
      "byteLength": 1956,
      "byteOffset": 17956,
      "target": 34962
    },
    {
      "buffer": 0,
      "byteLength": 1304,
      "byteOffset": 19912,
      "target": 34962
    },
    {
      "buffer": 0,
      "byteLength": 1956,
      "byteOffset": 21216,
      "target": 34962
    },
    {
      "buffer": 0,
      "byteLength": 1956,
      "byteOffset": 23172,
      "target": 34962
    },
    {
      "buffer": 0,
      "byteLength": 1304,
      "byteOffset": 25128,
      "target": 34962
    },
    {
      "buffer": 0,
      "byteLength": 34896,
      "byteOffset": 26432,
      "target": 34962
    },
    {
      "buffer": 0,
      "byteLength": 34896,
      "byteOffset": 61328,
      "target": 34962
    },
    {
      "buffer": 0,
      "byteLength": 23264,
      "byteOffset": 96224,
      "target": 34962
    },
    {
      "buffer": 0,
      "byteLength": 6984,
      "byteOffset": 119488,
      "target": 34963
    },
    {
      "buffer": 0,
      "byteLength": 29328,
      "byteOffset": 126472,
      "target": 34962
    },
    {
      "buffer": 0,
      "byteLength": 29328,
      "byteOffset": 155800,
      "target": 34962
    },
    {
      "buffer": 0,
      "byteLength": 19552,
      "byteOffset": 185128,
      "target": 34962
    },
    {
      "buffer": 0,
      "byteLength": 5880,
      "byteOffset": 204680,
      "target": 34963
    }
  ],
  "buffers": [
    {
      "byteLength": 210560,
      "uri": "data:application/octet-stream;base64,"
    }
  ]
}
          