{
    "asset" : {
        "generator" : "Khronos glTF Blender I/O v3.3.27",
        "version" : "2.0"
    },
    "scene" : 0,
    "scenes" : [
        {
            "name" : "Scene",
            "nodes" : [
                0
            ]
        }
    ],
    "nodes" : [
        {
            "mesh" : 0,
            "name" : "Cube.004",
            "scale" : [
                1.1480846405029297,
                1.1480846405029297,
                1.1480846405029297
            ],
            "translation" : [
                0,
                0.46152201294898987,
                1.5275671482086182
            ]
        }
    ],
    "materials" : [
        {
            "doubleSided" : true,
            "name" : "Material.002",
            "pbrMetallicRoughness" : {
                "baseColorFactor" : [
                    0.800000011920929,
                    0.800000011920929,
                    0.800000011920929,
                    1
                ],
                "metallicFactor" : 0,
                "roughnessFactor" : 0.4000000059604645
            }
        },
        {
            "doubleSided" : true,
            "name" : "Material.007",
            "pbrMetallicRoughness" : {
                "metallicFactor" : 0.8999999761581421,
                "roughnessFactor" : 0
            }
        },
        {
            "doubleSided" : true,
            "name" : "Material.008",
            "pbrMetallicRoughness" : {
                "baseColorFactor" : [
                    0.3185389041900635,
                    0.027052192017436028,
                    0.016024090349674225,
                    1
                ],
                "metallicFactor" : 0,
                "roughnessFactor" : 0.8136363625526428
            }
        },
        {
            "doubleSided" : true,
            "name" : "Material.003",
            "pbrMetallicRoughness" : {
                "baseColorFactor" : [
                    0.8000000715255737,
                    0.5943937301635742,
                    0.12825416028499603,
                    1
                ],
                "metallicFactor" : 0,
                "roughnessFactor" : 0.5
            }
        }
    ],
    "meshes" : [
        {
            "name" : "Cube.004",
            "primitives" : [
                {
                    "attributes" : {
                        "POSITION" : 0,
                        "NORMAL" : 1,
                        "TEXCOORD_0" : 2
                    },
                    "indices" : 3,
                    "material" : 0
                },
                {
                    "attributes" : {
                        "POSITION" : 4,
                        "NORMAL" : 5,
                        "TEXCOORD_0" : 6
                    },
                    "indices" : 7,
                    "material" : 1
                },
                {
                    "attributes" : {
                        "POSITION" : 8,
                        "NORMAL" : 9,
                        "TEXCOORD_0" : 10
                    },
                    "indices" : 11,
                    "material" : 2
                },
                {
                    "attributes" : {
                        "POSITION" : 12,
                        "NORMAL" : 13,
                        "TEXCOORD_0" : 14
                    },
                    "indices" : 15,
                    "material" : 3
                }
            ]
        }
    ],
    "accessors" : [
        {
            "bufferView" : 0,
            "componentType" : 5126,
            "count" : 10590,
            "max" : [
                0.987190306186676,
                2.1494839191436768,
                1.0591548681259155
            ],
            "min" : [
                -0.6317214965820312,
                -0.27096104621887207,
                -0.5849547982215881
            ],
            "type" : "VEC3"
        },
        {
            "bufferView" : 1,
            "componentType" : 5126,
            "count" : 10590,
            "type" : "VEC3"
        },
        {
            "bufferView" : 2,
            "componentType" : 5126,
            "count" : 10590,
            "type" : "VEC2"
        },
        {
            "bufferView" : 3,
            "componentType" : 5123,
            "count" : 13200,
            "type" : "SCALAR"
        },
        {
            "bufferView" : 4,
            "componentType" : 5126,
            "count" : 2112,
            "max" : [
                0.7861907482147217,
                1.2402418851852417,
                1.1891582012176514
            ],
            "min" : [
                -0.7861946821212769,
                0.3373354375362396,
                0.9575462937355042
            ],
            "type" : "VEC3"
        },
        {
            "bufferView" : 5,
            "componentType" : 5126,
            "count" : 2112,
            "type" : "VEC3"
        },
        {
            "bufferView" : 6,
            "componentType" : 5126,
            "count" : 2112,
            "type" : "VEC2"
        },
        {
            "bufferView" : 7,
            "componentType" : 5123,
            "count" : 3168,
            "type" : "SCALAR"
        },
        {
            "bufferView" : 8,
            "componentType" : 5126,
            "count" : 12704,
            "max" : [
                1.1433459520339966,
                2.035907506942749,
                1.0192092657089233
            ],
            "min" : [
                -1.143349528312683,
                -2.04538631439209,
                -3.0657453536987305
            ],
            "type" : "VEC3"
        },
        {
            "bufferView" : 9,
            "componentType" : 5126,
            "count" : 12704,
            "type" : "VEC3"
        },
        {
            "bufferView" : 10,
            "componentType" : 5126,
            "count" : 12704,
            "type" : "VEC2"
        },
        {
            "bufferView" : 11,
            "componentType" : 5123,
            "count" : 19056,
            "type" : "SCALAR"
        },
        {
            "bufferView" : 12,
            "componentType" : 5126,
            "count" : 1984,
            "max" : [
                0.7467717528343201,
                2.1674599647521973,
                0.33977699279785156
            ],
            "min" : [
                0.2841612994670868,
                1.7048492431640625,
                -0.12283334136009216
            ],
            "type" : "VEC3"
        },
        {
            "bufferView" : 13,
            "componentType" : 5126,
            "count" : 1984,
            "type" : "VEC3"
        },
        {
            "bufferView" : 14,
            "componentType" : 5126,
            "count" : 1984,
            "type" : "VEC2"
        },
        {
            "bufferView" : 15,
            "componentType" : 5123,
            "count" : 2880,
            "type" : "SCALAR"
        }
    ],
    "bufferViews" : [
        {
            "buffer" : 0,
            "byteLength" : 127080,
            "byteOffset" : 0,
            "target" : 34962
        },
        {
            "buffer" : 0,
            "byteLength" : 127080,
            "byteOffset" : 127080,
            "target" : 34962
        },
        {
            "buffer" : 0,
            "byteLength" : 84720,
            "byteOffset" : 254160,
            "target" : 34962
        },
        {
            "buffer" : 0,
            "byteLength" : 26400,
            "byteOffset" : 338880,
            "target" : 34963
        },
        {
            "buffer" : 0,
            "byteLength" : 25344,
            "byteOffset" : 365280,
            "target" : 34962
        },
        {
            "buffer" : 0,
            "byteLength" : 25344,
            "byteOffset" : 390624,
            "target" : 34962
        },
        {
            "buffer" : 0,
            "byteLength" : 16896,
            "byteOffset" : 415968,
            "target" : 34962
        },
        {
            "buffer" : 0,
            "byteLength" : 6336,
            "byteOffset" : 432864,
            "target" : 34963
        },
        {
            "buffer" : 0,
            "byteLength" : 152448,
            "byteOffset" : 439200,
            "target" : 34962
        },
        {
            "buffer" : 0,
            "byteLength" : 152448,
            "byteOffset" : 591648,
            "target" : 34962
        },
        {
            "buffer" : 0,
            "byteLength" : 101632,
            "byteOffset" : 744096,
            "target" : 34962
        },
        {
            "buffer" : 0,
            "byteLength" : 38112,
            "byteOffset" : 845728,
            "target" : 34963
        },
        {
            "buffer" : 0,
            "byteLength" : 23808,
            "byteOffset" : 883840,
            "target" : 34962
        },
        {
            "buffer" : 0,
            "byteLength" : 23808,
            "byteOffset" : 907648,
            "target" : 34962
        },
        {
            "buffer" : 0,
            "byteLength" : 15872,
            "byteOffset" : 931456,
            "target" : 34962
        },
        {
            "buffer" : 0,
            "byteLength" : 5760,
            "byteOffset" : 947328,
            "target" : 34963
        }
    ],
    "buffers" : [
        {
            "byteLength" : 953088,
            "uri" : "data:application/octet-stream;base64,"
        }
    ]
}
